<svg class="animated" id="freepik_stories-full-inbox" xmlns="http://www.w3.org/2000/svg" viewBox="0 0 500 500" version="1.1" xmlns:xlink="http://www.w3.org/1999/xlink" xmlns:svgjs="http://svgjs.com/svgjs"><style>svg#freepik_stories-full-inbox:not(.animated) .animable {opacity: 0;}svg#freepik_stories-full-inbox.animated #freepik--speech-bubble--inject-62 {animation: 1s 1 forwards cubic-bezier(.36,-0.01,.5,1.38) slideDown;animation-delay: 0s;}svg#freepik_stories-full-inbox.animated #freepik--Number--inject-62 {animation: 1s 1 forwards cubic-bezier(.36,-0.01,.5,1.38) slideDown;animation-delay: 0s;}svg#freepik_stories-full-inbox.animated #freepik--Character--inject-62 {animation: 1s 1 forwards cubic-bezier(.36,-0.01,.5,1.38) slideUp;animation-delay: 0s;}svg#freepik_stories-full-inbox.animated #freepik--Envelopes--inject-62 {animation: 1s 1 forwards cubic-bezier(.36,-0.01,.5,1.38) slideDown;animation-delay: 0s;}            @keyframes slideDown {                0% {                    opacity: 0;                    transform: translateY(-30px);                }                100% {                    opacity: 1;                    transform: translateY(0);                }            }                    @keyframes slideUp {                0% {                    opacity: 0;                    transform: translateY(30px);                }                100% {                    opacity: 1;                    transform: inherit;                }            }        </style><g id="freepik--background-simple--inject-62" class="animable" style="transform-origin: 251.18px 223.737px;"><path d="M44.69,245.93s-.19,75.34,60.36,123.45,146.73,48.7,216.44,51,124.75-39.53,134.92-100.26-42.6-76.61-69.2-144.41S364,85.25,304.15,45.07,147.54,34.21,94.77,108.47,44.69,245.93,44.69,245.93Z" style="fill: #FFC100; transform-origin: 251.18px 223.737px;" id="el1px8zzuzjhc" class="animable"></path><g id="eltn4n6yr2qm"><path d="M44.69,245.93s-.19,75.34,60.36,123.45,146.73,48.7,216.44,51,124.75-39.53,134.92-100.26-42.6-76.61-69.2-144.41S364,85.25,304.15,45.07,147.54,34.21,94.77,108.47,44.69,245.93,44.69,245.93Z" style="fill: rgb(255, 255, 255); opacity: 0.7; transform-origin: 251.18px 223.737px;" class="animable" id="el6g0sq72enh4"></path></g></g><g id="freepik--speech-bubble--inject-62" class="animable" style="transform-origin: 249.74px 116.245px;"><rect x="189.75" y="69.25" width="119.91" height="73.72" style="fill: rgb(38, 50, 56); stroke: rgb(38, 50, 56); stroke-miterlimit: 10; transform-origin: 249.705px 106.11px;" id="ela9eshu9wbja" class="animable"></rect><rect x="186.8" y="65.32" width="119.91" height="73.72" style="fill: rgb(255, 255, 255); stroke: rgb(38, 50, 56); stroke-miterlimit: 10; transform-origin: 246.755px 102.18px;" id="elakhh4o4sdha" class="animable"></rect><polygon points="186.8 139.03 247.74 83.99 306.71 139.03 186.8 139.03" style="fill: rgb(255, 255, 255); stroke: rgb(38, 50, 56); stroke-miterlimit: 10; transform-origin: 246.755px 111.51px;" id="el4jgay97ht1" class="animable"></polygon><polygon points="186.8 65.32 246.76 113.48 306.71 65.32 186.8 65.32" style="fill: rgb(255, 255, 255); stroke: rgb(38, 50, 56); stroke-miterlimit: 10; transform-origin: 246.755px 89.4px;" id="elm4s6gzyv7z" class="animable"></polygon><path d="M317.12,35.56H182.4A35.64,35.64,0,0,0,146.76,71.2v61.09a35.64,35.64,0,0,0,35.64,35.64H299.14l-4.35,29,24.93-29.09a35.62,35.62,0,0,0,33-35.53V71.2A35.64,35.64,0,0,0,317.12,35.56Z" style="fill: none; stroke: rgb(38, 50, 56); stroke-miterlimit: 10; transform-origin: 249.74px 116.245px;" id="elanitzzggv7i" class="animable"></path></g><g id="freepik--Number--inject-62" class="animable" style="transform-origin: 307.625px 71.73px;"><path d="M329.58,90.46H285.67a18.75,18.75,0,0,1-18.75-18.75h0A18.75,18.75,0,0,1,285.67,53h43.91a18.75,18.75,0,0,1,18.75,18.76h0A18.75,18.75,0,0,1,329.58,90.46Z" style="fill: rgb(38, 50, 56); stroke: rgb(38, 50, 56); stroke-miterlimit: 10; transform-origin: 307.625px 71.73px;" id="elsqkdobqxhzd" class="animable"></path><path d="M280.54,68.49h-.05l-3.09,1.36-.69-3.21,4.52-1.94h3.48v15h-4.17Z" style="fill: #FFC100; transform-origin: 280.71px 72.2px;" id="elym3bxra44i" class="animable"></path><path d="M288.63,82.36a40.42,40.42,0,0,0,1.87-7.18l4.34-.23a34.22,34.22,0,0,1-3.3,7.18Z" style="fill: #FFC100; transform-origin: 291.735px 78.655px;" id="el4g1c5ryikc2" class="animable"></path><path d="M296.41,75.76a3.71,3.71,0,0,1,2.68-3.6v0a3.64,3.64,0,0,1-2.17-3.28c0-2.65,2.51-4.4,5.88-4.4,4.34,0,5.61,2.4,5.61,4a3.61,3.61,0,0,1-2.1,3.24v0a3.84,3.84,0,0,1,2.77,3.62c0,2.7-2.33,4.69-6.49,4.69C298,80,296.41,77.46,296.41,75.76Zm8.17-.14c0-1-.88-1.71-2.1-2a1.72,1.72,0,0,0-1.57,1.71A1.8,1.8,0,0,0,302.8,77C303.79,77,304.58,76.45,304.58,75.62ZM301,68.72c0,.78.92,1.34,2,1.64a1.63,1.63,0,0,0,1.31-1.46,1.54,1.54,0,0,0-1.68-1.57A1.4,1.4,0,0,0,301,68.72Z" style="fill: #FFC100; transform-origin: 302.745px 72.255px;" id="elfche7ghf8kf" class="animable"></path><path d="M321.61,67.77a12.46,12.46,0,0,0-1.3,0c-3.53.06-4.86,1.31-5.3,2.65h.07a5.05,5.05,0,0,1,3.25-.9,4.84,4.84,0,0,1,5.1,5c0,3.25-2.82,5.49-6.16,5.49-4.83,0-6.72-3.46-6.72-6.74a8.62,8.62,0,0,1,2.73-6.51,10.14,10.14,0,0,1,7-2.3,7.8,7.8,0,0,1,1.3.09Zm-2.61,7a2,2,0,0,0-2.1-2.26,2.07,2.07,0,0,0-2,1.22,1.45,1.45,0,0,0-.12.69,2.39,2.39,0,0,0,2.36,2.36A1.85,1.85,0,0,0,319,74.79Z" style="fill: #FFC100; transform-origin: 316.99px 72.2275px;" id="el2lv0sboidd4" class="animable"></path><path d="M335.82,67.77a12.26,12.26,0,0,0-1.29,0c-3.53.06-4.87,1.31-5.31,2.65h.07a5.05,5.05,0,0,1,3.25-.9,4.83,4.83,0,0,1,5.1,5c0,3.25-2.81,5.49-6.16,5.49-4.82,0-6.71-3.46-6.71-6.74a8.61,8.61,0,0,1,2.72-6.51,10.15,10.15,0,0,1,7-2.3,7.66,7.66,0,0,1,1.29.09Zm-2.61,7a2,2,0,0,0-2.1-2.26,2.07,2.07,0,0,0-2,1.22,1.45,1.45,0,0,0-.12.69,2.39,2.39,0,0,0,2.36,2.36A1.85,1.85,0,0,0,333.21,74.79Z" style="fill: #FFC100; transform-origin: 331.205px 72.2276px;" id="elryp8v9vp1v" class="animable"></path></g><g id="freepik--Shadows--inject-62" class="animable" style="transform-origin: 259.555px 242.777px;"><g id="el16680m7wekd"><polygon points="45.76 409.41 81.97 368.35 109.36 368.35 140.67 348.91 165.13 360.79 219.93 399.68 271.79 415.89 309.94 395.36 333.43 402.92 370.61 372.67 411.7 372.67 430.29 359.71 460.63 382.4 446.93 397.52 481.17 419.13 476.28 463.42 37.94 463.42 45.76 409.41" style="opacity: 0.2; transform-origin: 259.555px 406.165px;" class="animable" id="elg6p00gy63gq"></polygon></g><g id="elkuxzqws2wo"><g style="opacity: 0.2; transform-origin: 244.566px 183.452px;" class="animable" id="elggb6twcrbb"><g id="elutzkygjzeg"><rect x="315.29" y="197.93" width="52.34" height="32.18" class="animable" style="transform-origin: 341.46px 214.02px; transform: rotate(-9.27deg);" id="elmt4o74yoboo"></rect></g><polygon points="410.92 264.39 359.26 272.82 362.07 290.04 357.72 286.34 336.86 310.84 376.72 344.77 397.58 320.27 376.78 302.57 416.1 296.15 410.92 264.39" id="elp3ooxw569r" class="animable" style="transform-origin: 376.48px 304.58px;"></polygon><g id="elk2j7q8orgv"><rect x="121.62" y="26.14" width="52.34" height="32.18" class="animable" style="transform-origin: 147.79px 42.23px; transform: rotate(-9.27deg);" id="el0wwz9z6jwtg"></rect></g><g id="ela7jmjiv1fbh"><rect x="91.75" y="293.41" width="52.34" height="32.18" class="animable" style="transform-origin: 117.92px 309.5px; transform: rotate(-9.27deg);" id="elnje72a3gti"></rect></g><g id="elx1xz0cn9if"><rect x="150.32" y="212.09" width="32.18" height="52.34" class="animable" style="transform-origin: 166.41px 238.26px; transform: rotate(-8.98deg);" id="el1umlxdhvswz"></rect></g><g id="eleitodprowxd"><rect x="86.72" y="220.94" width="32.18" height="52.34" class="animable" style="transform-origin: 102.81px 247.11px; transform: rotate(-49.26deg);" id="el41xzh1aht4q"></rect></g><g id="eltyc4pecuaa7"><rect x="370.58" y="121.29" width="32.18" height="52.34" class="animable" style="transform-origin: 386.67px 147.46px; transform: rotate(-45.82deg);" id="el3msezgdx54i"></rect></g></g></g></g><g id="freepik--Character--inject-62" class="animable" style="transform-origin: 260.642px 318.349px;"><path d="M268.29,182.43s-8.58-9.5-22.07-8.58-23,13.48-30.34,22.06-3.37,17.17-2.75,18.39-19.92,13.49-20.84,24.21,3.37,14.41,2.14,18.08S173.29,274.37,175.74,283a36.78,36.78,0,0,0,8.27,14.4s-8.58,9.5-7.35,14.4,11,15,29.72,22.38,79.68,8.88,101.14.3,26.66-36.16,23.59-40.14-12.26-8-11-13.18,5.21-12.57,2.45-17.16-10.72-6.44-13.48-11.34,2.45-11.65-1.53-17.78-10.42-14.71-10.42-14.71-6.44-27.27-13.79-34.63S268.29,182.43,268.29,182.43Z" style="fill: rgb(38, 50, 56); stroke: rgb(38, 50, 56); stroke-miterlimit: 10; transform-origin: 253.725px 257.061px;" id="el49y8ywlsoi2" class="animable"></path><polygon points="182.17 336.04 171.75 387.21 198.11 385.99 206.08 346.15 182.17 336.04" style="fill: rgb(255, 255, 255); stroke: rgb(38, 50, 56); stroke-miterlimit: 10; transform-origin: 188.915px 361.625px;" id="el7mfkqs6nzi5" class="animable"></polygon><polygon points="180.92 342.57 204.46 353.74 204.71 348.4 181.4 339.66 180.92 342.57" style="fill: rgb(38, 50, 56); stroke: rgb(38, 50, 56); stroke-miterlimit: 10; transform-origin: 192.815px 346.7px;" id="elj4nhy5axgpn" class="animable"></polygon><polygon points="332.03 328.68 351.03 375.88 326.82 385.38 309.66 340.33 332.03 328.68" style="fill: rgb(255, 255, 255); stroke: rgb(38, 50, 56); stroke-miterlimit: 10; transform-origin: 330.345px 357.03px;" id="elyagipcys3h" class="animable"></polygon><polygon points="335.05 337.47 312.47 347.67 309.66 340.33 332.03 328.68 335.05 337.47" style="fill: rgb(38, 50, 56); stroke: rgb(38, 50, 56); stroke-miterlimit: 10; transform-origin: 322.355px 338.175px;" id="el22gqxtssjf8" class="animable"></polygon><path d="M241.63,249,238,276.89s-11.49,3.68-18.85,4.9-22.83,4.91-26.2,11.95-17.16,44.13-17.16,44.13l31.87,11.5,5.21,25.89-4.9,49.34s103.58,1.23,103.58,0S302,371,302,371l3.68-22.68,33.71-16.24s-21.76-42.6-28.81-46.89-22.07-4.9-27.27-6.74a37.32,37.32,0,0,1-9.2-4.9l-6.43-23.91Z" style="fill: #FFC100; stroke: rgb(38, 50, 56); stroke-miterlimit: 10; transform-origin: 257.59px 337.073px;" id="elugqzza7ub6l" class="animable"></path><line x1="209.66" y1="324.95" x2="210.09" y2="319.82" style="fill: none; stroke: rgb(38, 50, 56); stroke-miterlimit: 10; transform-origin: 209.875px 322.385px;" id="eld7jw1d715dt" class="animable"></line><line x1="207.61" y1="349.37" x2="209.32" y2="329.06" style="fill: none; stroke: rgb(38, 50, 56); stroke-miterlimit: 10; transform-origin: 208.465px 339.215px;" id="elpz7h2g0oyp" class="animable"></line><line x1="306.77" y1="347.64" x2="300.86" y2="319.47" style="fill: #FFC100; stroke: rgb(38, 50, 56); stroke-miterlimit: 10; transform-origin: 303.815px 333.555px;" id="elc36vo39kqg8" class="animable"></line><path d="M283.31,278.42a37.32,37.32,0,0,1-9.2-4.9l-6.43-23.91L241.63,249,238,276.89s-12.79,4.35-20.61,6c5.43,3.57,21,12.54,40.22,12.05,16.56-.42,28.41-9.52,34.13-15.08A50.94,50.94,0,0,1,283.31,278.42Z" style="fill: rgb(255, 255, 255); stroke: rgb(38, 50, 56); stroke-miterlimit: 10; transform-origin: 254.565px 271.98px;" id="elmoinscjc8i" class="animable"></path><path d="M271.6,264.2l-1.37-5.12-13.83-9.73-2.2,0-14.26,12.48-.35,2.69c3.51,3.13,13,11.31,16.62,11.73C259.53,276.59,267.62,268.46,271.6,264.2Z" style="fill: rgb(38, 50, 56); stroke: rgb(38, 50, 56); stroke-miterlimit: 10; transform-origin: 255.595px 262.805px;" id="eltczr2cnqr1" class="animable"></path><path d="M266.53,201s-2.94-9.7-9.07-6.9-12,13.54-16.78,17.2-13,2.28-13,2.28.95,26.89,3.92,35.76,15.44,20.26,20.89,21,11.6-2.6,15.91-7.93,8-8.73,9-14.72c.93-5.4,1.26-27.63,1.07-29.83s-7.9-9-10-12.41S266.53,201,266.53,201Z" style="fill: rgb(255, 255, 255); stroke: rgb(38, 50, 56); stroke-miterlimit: 10; transform-origin: 253.101px 232.017px;" id="el9d4g814ukv7" class="animable"></path><line x1="238.63" y1="236.27" x2="243.46" y2="236.96" style="fill: none; stroke: rgb(38, 50, 56); stroke-miterlimit: 10; transform-origin: 241.045px 236.615px;" id="eltksxpcbxe7h" class="animable"></line><line x1="264.14" y1="237.65" x2="269.31" y2="236.96" style="fill: none; stroke: rgb(38, 50, 56); stroke-miterlimit: 10; transform-origin: 266.725px 237.305px;" id="el1wn0usfk5c7" class="animable"></line><path d="M249.9,244.5s2.67,2,5.43,1.29a8.28,8.28,0,0,0,4.2-2.59" style="fill: none; stroke: rgb(38, 50, 56); stroke-miterlimit: 10; transform-origin: 254.715px 244.571px;" id="el6rxl5g0b004" class="animable"></path><path d="M256.42,253.5c-.05,1.51-1,2.7-2,2.67s-1.87-1.3-1.82-2.81,1-2.71,2-2.67S256.48,252,256.42,253.5Z" style="fill: rgb(38, 50, 56); transform-origin: 254.51px 253.43px;" id="elt3fm1xhlv2m" class="animable"></path><path d="M244.31,233c-.06,1.57-.78,2.82-1.61,2.79s-1.46-1.32-1.4-2.89.77-2.82,1.6-2.79S244.36,231.39,244.31,233Z" style="fill: rgb(38, 50, 56); transform-origin: 242.804px 232.95px;" id="elzct4wm4d4u" class="animable"></path><path d="M267.16,233.78c-.06,1.57-.78,2.82-1.61,2.79s-1.46-1.32-1.41-2.89.78-2.82,1.61-2.79S267.21,232.21,267.16,233.78Z" style="fill: rgb(38, 50, 56); transform-origin: 265.65px 233.73px;" id="elm7ghbkzeinj" class="animable"></path><path d="M235.32,223.74s5.73-6.92,13.19-1.17" style="fill: none; stroke: rgb(38, 50, 56); stroke-linecap: round; stroke-miterlimit: 10; stroke-width: 2px; transform-origin: 241.915px 222.013px;" id="el3nwqwvrqsr1" class="animable"></path><path d="M260.05,221.88s7.33-5.76,13.37,1.58" style="fill: none; stroke: rgb(38, 50, 56); stroke-linecap: round; stroke-miterlimit: 10; stroke-width: 2px; transform-origin: 266.735px 221.595px;" id="el037qls7kz4l8" class="animable"></path><path d="M228.56,229s-3.07-6.14-3.91,2.05,5.09,10.87,5.09,10.87Z" style="fill: rgb(255, 255, 255); stroke: rgb(38, 50, 56); stroke-miterlimit: 10; transform-origin: 227.154px 234.355px;" id="eljar9v1fb2t" class="animable"></path><path d="M278.62,230.68s3-6.18,3.93,2-4.41,8.34-4.41,8.34Z" style="fill: rgb(255, 255, 255); stroke: rgb(38, 50, 56); stroke-miterlimit: 10; transform-origin: 280.399px 234.731px;" id="elw62xvwpti8" class="animable"></path><path d="M324.37,343.7l-26.05-30s-6.43-10.42-8-12.87a96.2,96.2,0,0,0-6.43-8s-3.07-.91-1.84,3.07a54.78,54.78,0,0,0,4.29,9.19l.61,3.68-27.64-9.87a2.22,2.22,0,0,0-2.92,1.62l0,.15a2.21,2.21,0,0,0,1.16,2.44l14.72,7.5-22.09-3.87a2.23,2.23,0,0,0-2.6,2h0a2.22,2.22,0,0,0,1.65,2.31l20.28,5.35-18.92,1.08a2.14,2.14,0,0,0-2,2.61h0a2.14,2.14,0,0,0,1.91,1.65l20.81,1.71-13.77,2.75a1.57,1.57,0,0,0-1.21,1.86h0a1.55,1.55,0,0,0,1.52,1.21h16.83l9.5,1.84,11.65,1.53s29.73,56.09,30.65,57.92,5.82,4.91,10.72,4.91,11.78-5.38,13.29-8.79c1.42-3.18,3.26-9.6-2.56-15.73S324.37,343.7,324.37,343.7Z" style="fill: rgb(255, 255, 255); stroke: rgb(38, 50, 56); stroke-miterlimit: 10; transform-origin: 299.753px 344.105px;" id="eld4g6139hski" class="animable"></path><polygon points="241.63 317.04 246.35 359.04 269.64 357.5 264.61 315.2 241.63 317.04" style="fill: rgb(38, 50, 56); stroke: rgb(38, 50, 56); stroke-miterlimit: 10; transform-origin: 255.635px 337.12px;" id="eloat45dque7m" class="animable"></polygon><path d="M230.29,363.92l2.14-20.84S230.29,333,231.21,333s11.64-2.14,11.64-2.14l.92,3.67-6.43,3.37,3.67,7.67,19.18-11.68a1.89,1.89,0,0,1,2.76,1h0a1.9,1.9,0,0,1-.53,2.06l-14.36,12.63,18.69-6.5a2.29,2.29,0,0,1,3,1.69h0a2.3,2.3,0,0,1-1.23,2.54l-18.93,9.32,14.36-1.1a2.28,2.28,0,0,1,1.83,3.14h0a2.31,2.31,0,0,1-1.28,1.25L262.44,363a2.94,2.94,0,0,1-1.62,1.21l-3.69,1.1-18.26,6.87s-47.2,33.4-48.42,34.32-4,2.15-10.42.92-11.95-11-10.42-17.77a14.6,14.6,0,0,1,8.58-10.42C180,378.63,230.29,363.92,230.29,363.92Z" style="fill: rgb(255, 255, 255); stroke: rgb(38, 50, 56); stroke-miterlimit: 10; transform-origin: 219.577px 369.399px;" id="el69v3bnx6t6" class="animable"></path><line x1="236.63" y1="354.52" x2="243.98" y2="369.53" style="fill: none; stroke: rgb(38, 50, 56); stroke-miterlimit: 10; transform-origin: 240.305px 362.025px;" id="elqhzvj3y7dwa" class="animable"></line><line x1="264.9" y1="359.49" x2="249.17" y2="363.19" style="fill: rgb(255, 255, 255); stroke: rgb(38, 50, 56); stroke-miterlimit: 10; transform-origin: 257.035px 361.34px;" id="elyf670elnxs" class="animable"></line><polygon points="328.74 462.91 311.5 424.6 207.92 424.6 193.1 462.91 328.74 462.91" style="fill: rgb(150, 150, 150); stroke: rgb(38, 50, 56); stroke-miterlimit: 10; transform-origin: 260.92px 443.755px;" id="elz2fuvtt8d8c" class="animable"></polygon><path d="M263.3,192.4s-4.79,1.6-6.71,9.58a18.44,18.44,0,0,1-14,13.4c-5.11,1-9.26-2.55-9.26-2.55a12.59,12.59,0,0,0,12.13-2.24c5.75-4.78,2.87-13.72,7-16.91" style="fill: rgb(38, 50, 56); stroke: rgb(38, 50, 56); stroke-miterlimit: 10; transform-origin: 248.315px 203.979px;" id="elktmjgwt9tc" class="animable"></path></g><g id="freepik--Envelopes--inject-62" class="animable" style="transform-origin: 247.855px 278.96px;"><g id="eluzlv94fdio"><rect x="93.18" y="410.22" width="59.82" height="36.78" style="fill: rgb(255, 255, 255); stroke: rgb(38, 50, 56); stroke-miterlimit: 10; transform-origin: 123.09px 428.61px; transform: rotate(-28.41deg);" class="animable" id="elimpypolsqvb"></rect></g><polygon points="105.53 459.01 119.2 420.4 158.15 430.55 105.53 459.01" style="fill: rgb(255, 255, 255); stroke: rgb(38, 50, 56); stroke-miterlimit: 10; transform-origin: 131.84px 439.705px;" id="elherc6x6emq" class="animable"></polygon><polygon points="88.03 426.67 125.77 433.57 140.65 398.2 88.03 426.67" style="fill: rgb(255, 255, 255); stroke: rgb(38, 50, 56); stroke-miterlimit: 10; transform-origin: 114.34px 415.885px;" id="elzi9zysuwg8p" class="animable"></polygon><polygon points="256.85 463.42 266.63 458.13 249.13 425.79 196.52 454.25 201.48 463.42 256.85 463.42" style="fill: rgb(255, 255, 255); stroke: rgb(38, 50, 56); stroke-miterlimit: 10; transform-origin: 231.575px 444.605px;" id="elsdil1glg17g" class="animable"></polygon><polygon points="256.85 463.42 266.63 458.13 227.69 447.98 222.22 463.42 256.85 463.42" style="fill: rgb(255, 255, 255); stroke: rgb(38, 50, 56); stroke-miterlimit: 10; transform-origin: 244.425px 455.7px;" id="ely6jq2yam6lm" class="animable"></polygon><polygon points="196.52 454.25 234.26 461.15 249.13 425.79 196.52 454.25" style="fill: rgb(255, 255, 255); stroke: rgb(38, 50, 56); stroke-miterlimit: 10; transform-origin: 222.825px 443.47px;" id="el0fj9jx2q3x5l" class="animable"></polygon><polygon points="127.03 463.42 179.29 435.15 161.79 402.8 109.18 431.27 126.58 463.42 127.03 463.42" style="fill: rgb(255, 255, 255); stroke: rgb(38, 50, 56); stroke-miterlimit: 10; transform-origin: 144.235px 433.11px;" id="el17910jiw4qc" class="animable"></polygon><polygon points="127.03 463.42 179.29 435.15 140.35 425 126.74 463.42 127.03 463.42" style="fill: rgb(255, 255, 255); stroke: rgb(38, 50, 56); stroke-miterlimit: 10; transform-origin: 153.015px 444.21px;" id="el2dv8xqipj9u" class="animable"></polygon><polygon points="109.18 431.27 146.92 438.17 161.79 402.8 109.18 431.27" style="fill: rgb(255, 255, 255); stroke: rgb(38, 50, 56); stroke-miterlimit: 10; transform-origin: 135.485px 420.485px;" id="eltjhm39flwoc" class="animable"></polygon><g id="elkn41ovqo74m"><rect x="96.69" y="379.42" width="59.82" height="36.78" style="fill: rgb(255, 255, 255); stroke: rgb(38, 50, 56); stroke-miterlimit: 10; transform-origin: 126.6px 397.81px; transform: rotate(163.65deg);" class="animable" id="elx0fa1ox7ua"></rect></g><polygon points="160.48 407.04 123.58 389.25 103.08 423.88 160.48 407.04" style="fill: rgb(255, 255, 255); stroke: rgb(38, 50, 56); stroke-miterlimit: 10; transform-origin: 131.78px 406.565px;" id="elhaccjic3led" class="animable"></polygon><polygon points="150.13 371.75 128.19 403.22 92.73 388.59 150.13 371.75" style="fill: rgb(255, 255, 255); stroke: rgb(38, 50, 56); stroke-miterlimit: 10; transform-origin: 121.43px 387.485px;" id="el90ogbo452o" class="animable"></polygon><g id="elix16tyus0ab"><rect x="156.72" y="411.02" width="59.82" height="36.78" style="fill: rgb(255, 255, 255); stroke: rgb(38, 50, 56); stroke-miterlimit: 10; transform-origin: 186.63px 429.41px; transform: rotate(163.65deg);" class="animable" id="elr6uocpypqyi"></rect></g><polygon points="220.51 438.63 183.61 420.84 163.11 455.47 220.51 438.63" style="fill: rgb(255, 255, 255); stroke: rgb(38, 50, 56); stroke-miterlimit: 10; transform-origin: 191.81px 438.155px;" id="elt6uc953vd8m" class="animable"></polygon><polygon points="210.16 403.34 188.22 434.82 152.76 420.18 210.16 403.34" style="fill: rgb(255, 255, 255); stroke: rgb(38, 50, 56); stroke-miterlimit: 10; transform-origin: 181.46px 419.08px;" id="elcl93y1sce4u" class="animable"></polygon><g id="eloyrxeahl8rj"><rect x="128.73" y="188.03" width="59.82" height="36.78" style="fill: rgb(255, 255, 255); stroke: rgb(38, 50, 56); stroke-miterlimit: 10; transform-origin: 158.64px 206.42px; transform: rotate(-170.819deg);" class="animable" id="el3qzaqrarv53"></rect></g><polygon points="185.2 229.38 159.62 197.39 126.16 219.75 185.2 229.38" style="fill: rgb(255, 255, 255); stroke: rgb(38, 50, 56); stroke-miterlimit: 10; transform-origin: 155.68px 213.385px;" id="ellzsw3a6pfx" class="animable"></polygon><polygon points="191.13 193.09 157.74 211.99 132.09 183.46 191.13 193.09" style="fill: rgb(255, 255, 255); stroke: rgb(38, 50, 56); stroke-miterlimit: 10; transform-origin: 161.61px 197.725px;" id="elolrkngiy5z" class="animable"></polygon><g id="el1dysvttmskqj"><rect x="75.91" y="268.57" width="59.82" height="36.78" style="fill: rgb(255, 255, 255); stroke: rgb(38, 50, 56); stroke-miterlimit: 10; transform-origin: 105.82px 286.96px; transform: rotate(-170.73deg);" class="animable" id="elzfh7tstssyg"></rect></g><polygon points="132.38 309.93 106.8 277.93 73.34 300.29 132.38 309.93" style="fill: rgb(255, 255, 255); stroke: rgb(38, 50, 56); stroke-miterlimit: 10; transform-origin: 102.86px 293.93px;" id="elpm98i2gkir" class="animable"></polygon><polygon points="138.3 273.63 104.91 292.53 79.26 264 138.3 273.63" style="fill: rgb(255, 255, 255); stroke: rgb(38, 50, 56); stroke-miterlimit: 10; transform-origin: 108.78px 278.265px;" id="el5emdlqlw99" class="animable"></polygon><g id="el9sq1r45nk9q"><rect x="323.59" y="98.83" width="59.82" height="36.78" style="fill: rgb(255, 255, 255); stroke: rgb(38, 50, 56); stroke-miterlimit: 10; transform-origin: 353.5px 117.22px; transform: rotate(-170.73deg);" class="animable" id="elvoexkrin2en"></rect></g><polygon points="380.06 140.18 354.48 108.19 321.02 130.55 380.06 140.18" style="fill: rgb(255, 255, 255); stroke: rgb(38, 50, 56); stroke-miterlimit: 10; transform-origin: 350.54px 124.185px;" id="elxw99ssl6hc" class="animable"></polygon><polygon points="385.98 103.89 352.59 122.78 326.94 94.25 385.98 103.89" style="fill: rgb(255, 255, 255); stroke: rgb(38, 50, 56); stroke-miterlimit: 10; transform-origin: 356.46px 108.515px;" id="elhjmsup4ghkj" class="animable"></polygon><g id="elxu8a1d24y1h"><rect x="386.12" y="378.69" width="59.82" height="36.78" style="fill: rgb(255, 255, 255); stroke: rgb(38, 50, 56); stroke-miterlimit: 10; transform-origin: 416.03px 397.08px; transform: rotate(-170.73deg);" class="animable" id="elv61eo6u7ny"></rect></g><polygon points="442.59 420.04 417.01 388.04 383.55 410.4 442.59 420.04" style="fill: rgb(255, 255, 255); stroke: rgb(38, 50, 56); stroke-miterlimit: 10; transform-origin: 413.07px 404.04px;" id="el7xs62ru21e3" class="animable"></polygon><polygon points="448.51 383.74 415.12 402.64 389.47 374.11 448.51 383.74" style="fill: rgb(255, 255, 255); stroke: rgb(38, 50, 56); stroke-miterlimit: 10; transform-origin: 418.99px 388.375px;" id="elmsu6bqlrxai" class="animable"></polygon><g id="elofgqze15q9t"><rect x="281.93" y="410.89" width="59.82" height="36.78" style="fill: rgb(255, 255, 255); stroke: rgb(38, 50, 56); stroke-miterlimit: 10; transform-origin: 311.84px 429.28px; transform: rotate(-170.73deg);" class="animable" id="el310xsrcqu4c"></rect></g><polygon points="338.4 452.24 312.82 420.24 279.36 442.61 338.4 452.24" style="fill: rgb(255, 255, 255); stroke: rgb(38, 50, 56); stroke-miterlimit: 10; transform-origin: 308.88px 436.24px;" id="el7tj3rjmn5rb" class="animable"></polygon><polygon points="344.32 415.94 310.93 434.84 285.28 406.31 344.32 415.94" style="fill: rgb(255, 255, 255); stroke: rgb(38, 50, 56); stroke-miterlimit: 10; transform-origin: 314.8px 420.575px;" id="elapzwzodvpqq" class="animable"></polygon><g id="el40y9k6mmrjy"><rect x="384.21" y="297.15" width="59.82" height="36.78" style="fill: rgb(255, 255, 255); stroke: rgb(38, 50, 56); stroke-miterlimit: 10; transform-origin: 414.12px 315.54px; transform: rotate(-170.73deg);" class="animable" id="eln38z5876dr"></rect></g><polygon points="440.68 338.5 415.1 306.51 381.64 328.87 440.68 338.5" style="fill: rgb(255, 255, 255); stroke: rgb(38, 50, 56); stroke-miterlimit: 10; transform-origin: 411.16px 322.505px;" id="el814xq07rqgk" class="animable"></polygon><polygon points="446.6 302.21 413.21 321.1 387.56 292.57 446.6 302.21" style="fill: rgb(255, 255, 255); stroke: rgb(38, 50, 56); stroke-miterlimit: 10; transform-origin: 417.08px 306.835px;" id="elm3f110z8tr8" class="animable"></polygon><g id="elopt42fvy7j"><rect x="220.97" y="378.25" width="59.82" height="36.78" style="fill: rgb(255, 255, 255); stroke: rgb(38, 50, 56); stroke-miterlimit: 10; transform-origin: 250.88px 396.64px; transform: rotate(149.82deg);" class="animable" id="elj3jsuqqe4w"></rect></g><polygon points="285.98 397.49 245.9 389.04 234.27 427.57 285.98 397.49" style="fill: rgb(255, 255, 255); stroke: rgb(38, 50, 56); stroke-miterlimit: 10; transform-origin: 260.125px 408.305px;" id="elekr8insrfdc" class="animable"></polygon><polygon points="267.49 365.7 253.71 401.51 215.78 395.78 267.49 365.7" style="fill: rgb(255, 255, 255); stroke: rgb(38, 50, 56); stroke-miterlimit: 10; transform-origin: 241.635px 383.605px;" id="elor6r626dvgp" class="animable"></polygon><g id="ell4kz0l84wj8"><rect x="328.79" y="215.75" width="59.82" height="36.78" style="fill: rgb(255, 255, 255); stroke: rgb(38, 50, 56); stroke-miterlimit: 10; transform-origin: 358.7px 234.14px; transform: rotate(98.98deg);" class="animable" id="el02hmv7y6bbzp"></rect></g><polygon points="381.53 207.46 349.66 233.2 372.19 266.55 381.53 207.46" style="fill: rgb(255, 255, 255); stroke: rgb(38, 50, 56); stroke-miterlimit: 10; transform-origin: 365.595px 237.005px;" id="elmzr699bs8z" class="animable"></polygon><polygon points="345.2 201.72 364.27 235.01 335.87 260.81 345.2 201.72" style="fill: rgb(255, 255, 255); stroke: rgb(38, 50, 56); stroke-miterlimit: 10; transform-origin: 350.07px 231.265px;" id="eltczzmizfxsh" class="animable"></polygon><g id="elp3jjhgppfma"><rect x="325.12" y="373.13" width="59.82" height="36.78" style="fill: rgb(255, 255, 255); stroke: rgb(38, 50, 56); stroke-miterlimit: 10; transform-origin: 355.03px 391.52px; transform: rotate(-260.819deg);" class="animable" id="el8skow2rulfv"></rect></g><polygon points="377.86 364.85 345.99 390.59 368.52 423.94 377.86 364.85" style="fill: rgb(255, 255, 255); stroke: rgb(38, 50, 56); stroke-miterlimit: 10; transform-origin: 361.925px 394.395px;" id="elgp11cu39ejf" class="animable"></polygon><polygon points="341.54 359.11 360.6 392.4 332.2 418.19 341.54 359.11" style="fill: rgb(255, 255, 255); stroke: rgb(38, 50, 56); stroke-miterlimit: 10; transform-origin: 346.4px 388.65px;" id="elcwl8mmp3q8i" class="animable"></polygon><g id="elq7z8cwivu9e"><rect x="401.48" y="225.85" width="59.82" height="36.78" style="fill: rgb(255, 255, 255); stroke: rgb(38, 50, 56); stroke-miterlimit: 10; transform-origin: 431.39px 244.24px; transform: rotate(139.26deg);" class="animable" id="elkjca1u4awph"></rect></g><polygon points="466.05 238.65 425.09 237.69 420.72 277.69 466.05 238.65" style="fill: rgb(255, 255, 255); stroke: rgb(38, 50, 56); stroke-miterlimit: 10; transform-origin: 443.385px 257.69px;" id="el1z5hsjunjvcj" class="animable"></polygon><polygon points="442.05 210.79 435.07 248.51 396.72 249.83 442.05 210.79" style="fill: rgb(255, 255, 255); stroke: rgb(38, 50, 56); stroke-miterlimit: 10; transform-origin: 419.385px 230.31px;" id="elblcznbok6bm" class="animable"></polygon><g id="elofpgvrdzab"><rect x="77.07" y="111.97" width="59.82" height="36.78" style="fill: rgb(255, 255, 255); stroke: rgb(38, 50, 56); stroke-miterlimit: 10; transform-origin: 106.98px 130.36px; transform: rotate(135.82deg);" class="animable" id="elbb45hml0t4e"></rect></g><polygon points="141.24 122.7 100.3 124.2 98.34 164.39 141.24 122.7" style="fill: rgb(255, 255, 255); stroke: rgb(38, 50, 56); stroke-miterlimit: 10; transform-origin: 119.79px 143.545px;" id="elyzo5avs3fi" class="animable"></polygon><polygon points="115.61 96.33 110.91 134.4 72.71 138.02 115.61 96.33" style="fill: rgb(255, 255, 255); stroke: rgb(38, 50, 56); stroke-miterlimit: 10; transform-origin: 94.16px 117.175px;" id="elflt5nrsxymq" class="animable"></polygon><polygon points="52.55 463.42 104.82 435.15 87.32 402.8 34.71 431.27 52.1 463.42 52.55 463.42" style="fill: rgb(255, 255, 255); stroke: rgb(38, 50, 56); stroke-miterlimit: 10; transform-origin: 69.765px 433.11px;" id="elg3aoybfehg9" class="animable"></polygon><polygon points="52.55 463.42 104.82 435.15 65.88 425 52.27 463.42 52.55 463.42" style="fill: rgb(255, 255, 255); stroke: rgb(38, 50, 56); stroke-miterlimit: 10; transform-origin: 78.545px 444.21px;" id="el946msdoe0ku" class="animable"></polygon><polygon points="34.71 431.27 72.45 438.17 87.32 402.8 34.71 431.27" style="fill: rgb(255, 255, 255); stroke: rgb(38, 50, 56); stroke-miterlimit: 10; transform-origin: 61.015px 420.485px;" id="elbmfahxz55v9" class="animable"></polygon><polygon points="80.44 463.67 78.01 434.4 18.4 439.35 20.42 463.67 80.44 463.67" style="fill: rgb(255, 255, 255); stroke: rgb(38, 50, 56); stroke-miterlimit: 10; transform-origin: 49.42px 449.035px;" id="elgfm6nukmt9g" class="animable"></polygon><polygon points="71.7 463.67 49.47 446.12 33.01 463.67 71.7 463.67" style="fill: rgb(255, 255, 255); stroke: rgb(38, 50, 56); stroke-miterlimit: 10; transform-origin: 52.355px 454.895px;" id="el0n6fiakh68sk" class="animable"></polygon><polygon points="18.4 439.35 50.19 460.82 78.01 434.4 18.4 439.35" style="fill: rgb(255, 255, 255); stroke: rgb(38, 50, 56); stroke-miterlimit: 10; transform-origin: 48.205px 447.61px;" id="eldl7qwv809xq" class="animable"></polygon><polygon points="314.98 463.42 318.11 442.4 258.94 433.61 254.5 463.42 314.98 463.42" style="fill: rgb(255, 255, 255); stroke: rgb(38, 50, 56); stroke-miterlimit: 10; transform-origin: 286.305px 448.515px;" id="el5n3ljb9bm5y" class="animable"></polygon><polygon points="300.48 463.42 287.64 447.29 263.39 463.42 300.48 463.42" style="fill: rgb(255, 255, 255); stroke: rgb(38, 50, 56); stroke-miterlimit: 10; transform-origin: 281.935px 455.355px;" id="eltagv9kxm3on" class="animable"></polygon><polygon points="258.94 433.61 284.99 461.77 318.11 442.4 258.94 433.61" style="fill: rgb(255, 255, 255); stroke: rgb(38, 50, 56); stroke-miterlimit: 10; transform-origin: 288.525px 447.69px;" id="elg2hg3fhub0d" class="animable"></polygon><g id="elbyp5yho209v"><rect x="57.32" y="394.59" width="59.82" height="36.78" style="fill: rgb(255, 255, 255); stroke: rgb(38, 50, 56); stroke-miterlimit: 10; transform-origin: 87.23px 412.98px; transform: rotate(2.18deg);" class="animable" id="elnw600i8cjo"></rect></g><polygon points="56.65 430.22 88.07 403.94 116.42 432.49 56.65 430.22" style="fill: rgb(255, 255, 255); stroke: rgb(38, 50, 56); stroke-miterlimit: 10; transform-origin: 86.535px 418.215px;" id="ellzq1fi7pzhj" class="animable"></polygon><polygon points="58.04 393.47 87.02 418.62 117.82 395.74 58.04 393.47" style="fill: rgb(255, 255, 255); stroke: rgb(38, 50, 56); stroke-miterlimit: 10; transform-origin: 87.93px 406.045px;" id="els4fqx47r41" class="animable"></polygon><g id="elrwwe7pc7d6b"><rect x="96.29" y="398.17" width="59.82" height="36.78" style="fill: rgb(255, 255, 255); stroke: rgb(38, 50, 56); stroke-miterlimit: 10; transform-origin: 126.2px 416.56px; transform: rotate(16.35deg);" class="animable" id="elyobzc2kreo"></rect></g><polygon points="92.32 425.78 129.22 407.99 149.72 442.62 92.32 425.78" style="fill: rgb(255, 255, 255); stroke: rgb(38, 50, 56); stroke-miterlimit: 10; transform-origin: 121.02px 425.305px;" id="el8hdyuc0efg" class="animable"></polygon><polygon points="102.67 390.49 124.61 421.96 160.07 407.33 102.67 390.49" style="fill: rgb(255, 255, 255); stroke: rgb(38, 50, 56); stroke-miterlimit: 10; transform-origin: 131.37px 406.225px;" id="elohxket46e3" class="animable"></polygon><polygon points="86.86 463.42 106.01 446.45 81.62 418.93 36.85 458.6 41.12 463.42 86.86 463.42" style="fill: rgb(255, 255, 255); stroke: rgb(38, 50, 56); stroke-miterlimit: 10; transform-origin: 71.43px 441.175px;" id="el6laqev3y3r4" class="animable"></polygon><polygon points="86.86 463.42 106.01 446.45 65.78 445.41 63.77 463.42 86.86 463.42" style="fill: rgb(255, 255, 255); stroke: rgb(38, 50, 56); stroke-miterlimit: 10; transform-origin: 84.89px 454.415px;" id="el7paggrjwx4b" class="animable"></polygon><polygon points="36.85 458.6 75.17 456.75 81.62 418.93 36.85 458.6" style="fill: rgb(255, 255, 255); stroke: rgb(38, 50, 56); stroke-miterlimit: 10; transform-origin: 59.235px 438.765px;" id="elf10jpg7ha4" class="animable"></polygon><polygon points="130.58 463.42 137.6 439.49 80.19 422.65 69.84 457.94 88.54 463.42 130.58 463.42" style="fill: rgb(255, 255, 255); stroke: rgb(38, 50, 56); stroke-miterlimit: 10; transform-origin: 103.72px 443.035px;" id="elc2e9krv6uag" class="animable"></polygon><polygon points="120.52 463.42 106.74 440.15 69.84 457.94 88.54 463.42 120.52 463.42" style="fill: rgb(255, 255, 255); stroke: rgb(38, 50, 56); stroke-miterlimit: 10; transform-origin: 95.18px 451.785px;" id="elgpd7hqm2hsl" class="animable"></polygon><polygon points="80.19 422.65 102.13 454.12 137.6 439.49 80.19 422.65" style="fill: rgb(255, 255, 255); stroke: rgb(38, 50, 56); stroke-miterlimit: 10; transform-origin: 108.895px 438.385px;" id="elm99fdi3fq4" class="animable"></polygon><polygon points="235.42 463.42 236.42 437.12 176.64 434.84 175.56 463.42 235.42 463.42" style="fill: rgb(255, 255, 255); stroke: rgb(38, 50, 56); stroke-miterlimit: 10; transform-origin: 205.99px 449.13px;" id="elujbaxqpqeg" class="animable"></polygon><polygon points="224.66 463.42 206.67 445.31 185.01 463.42 224.66 463.42" style="fill: rgb(255, 255, 255); stroke: rgb(38, 50, 56); stroke-miterlimit: 10; transform-origin: 204.835px 454.365px;" id="el8a5jbg1c80w" class="animable"></polygon><polygon points="176.64 434.84 205.62 459.99 236.42 437.12 176.64 434.84" style="fill: rgb(255, 255, 255); stroke: rgb(38, 50, 56); stroke-miterlimit: 10; transform-origin: 206.53px 447.415px;" id="elcw6f8vz8h08" class="animable"></polygon><g id="ela0wv6pp1f8"><rect x="359.02" y="410.22" width="59.82" height="36.78" style="fill: rgb(255, 255, 255); stroke: rgb(38, 50, 56); stroke-miterlimit: 10; transform-origin: 388.93px 428.61px; transform: rotate(-151.59deg);" class="animable" id="elupecanw4yq"></rect></g><polygon points="406.49 459.01 392.81 420.4 353.87 430.55 406.49 459.01" style="fill: rgb(255, 255, 255); stroke: rgb(38, 50, 56); stroke-miterlimit: 10; transform-origin: 380.18px 439.705px;" id="elszjqy6alnxe" class="animable"></polygon><polygon points="423.99 426.67 386.25 433.57 371.37 398.2 423.99 426.67" style="fill: rgb(255, 255, 255); stroke: rgb(38, 50, 56); stroke-miterlimit: 10; transform-origin: 397.68px 415.885px;" id="elt1ijbc9dz7c" class="animable"></polygon><polygon points="385.44 463.42 402.84 431.27 350.23 402.8 332.73 435.15 384.99 463.42 385.44 463.42" style="fill: rgb(255, 255, 255); stroke: rgb(38, 50, 56); stroke-miterlimit: 10; transform-origin: 367.785px 433.11px;" id="eljal9lz7q7g" class="animable"></polygon><polygon points="385.27 463.42 371.67 425 332.73 435.15 384.99 463.42 385.27 463.42" style="fill: rgb(255, 255, 255); stroke: rgb(38, 50, 56); stroke-miterlimit: 10; transform-origin: 359px 444.21px;" id="elwc5y0pxjzzi" class="animable"></polygon><polygon points="402.84 431.27 365.1 438.17 350.23 402.8 402.84 431.27" style="fill: rgb(255, 255, 255); stroke: rgb(38, 50, 56); stroke-miterlimit: 10; transform-origin: 376.535px 420.485px;" id="elblwdi54dacu" class="animable"></polygon><g id="elxyt0v6cl0rn"><rect x="313.05" y="411.14" width="59.82" height="36.78" style="fill: rgb(255, 255, 255); stroke: rgb(38, 50, 56); stroke-miterlimit: 10; transform-origin: 342.96px 429.53px; transform: rotate(-151.59deg);" class="animable" id="el26551ukvacu"></rect></g><polygon points="360.52 459.93 346.85 421.32 307.9 431.47 360.52 459.93" style="fill: rgb(255, 255, 255); stroke: rgb(38, 50, 56); stroke-miterlimit: 10; transform-origin: 334.21px 440.625px;" id="el2n6u2wiops3" class="animable"></polygon><polygon points="378.02 427.59 340.28 434.49 325.4 399.12 378.02 427.59" style="fill: rgb(255, 255, 255); stroke: rgb(38, 50, 56); stroke-miterlimit: 10; transform-origin: 351.71px 416.805px;" id="el5ajuaf2qge6" class="animable"></polygon><polygon points="459.91 463.42 477.31 431.27 424.69 402.8 407.19 435.15 459.46 463.42 459.91 463.42" style="fill: rgb(255, 255, 255); stroke: rgb(38, 50, 56); stroke-miterlimit: 10; transform-origin: 442.25px 433.11px;" id="el6uuc0tlws4b" class="animable"></polygon><polygon points="459.74 463.42 446.14 425 407.19 435.15 459.46 463.42 459.74 463.42" style="fill: rgb(255, 255, 255); stroke: rgb(38, 50, 56); stroke-miterlimit: 10; transform-origin: 433.465px 444.21px;" id="el1hknqh3dfr8" class="animable"></polygon><polygon points="477.31 431.27 439.57 438.17 424.69 402.8 477.31 431.27" style="fill: rgb(255, 255, 255); stroke: rgb(38, 50, 56); stroke-miterlimit: 10; transform-origin: 451px 420.485px;" id="elax9g4x264so" class="animable"></polygon><polygon points="361.37 463.42 368.82 449.65 316.21 421.19 298.71 453.53 316.99 463.42 361.37 463.42" style="fill: rgb(255, 255, 255); stroke: rgb(38, 50, 56); stroke-miterlimit: 10; transform-origin: 333.765px 442.305px;" id="el13cokmskco5g" class="animable"></polygon><polygon points="344.75 463.42 337.65 443.38 298.71 453.53 316.99 463.42 344.75 463.42" style="fill: rgb(255, 255, 255); stroke: rgb(38, 50, 56); stroke-miterlimit: 10; transform-origin: 321.73px 453.4px;" id="elva1p39kn9ll" class="animable"></polygon><polygon points="368.82 449.65 331.08 456.55 316.21 421.19 368.82 449.65" style="fill: rgb(255, 255, 255); stroke: rgb(38, 50, 56); stroke-miterlimit: 10; transform-origin: 342.515px 438.87px;" id="elke4ojzyjahp" class="animable"></polygon><g id="el9mu1egcn8no"><rect x="394.87" y="394.59" width="59.82" height="36.78" style="fill: rgb(255, 255, 255); stroke: rgb(38, 50, 56); stroke-miterlimit: 10; transform-origin: 424.78px 412.98px; transform: rotate(177.82deg);" class="animable" id="ele631qslwhbg"></rect></g><polygon points="455.37 430.22 423.95 403.94 395.6 432.49 455.37 430.22" style="fill: rgb(255, 255, 255); stroke: rgb(38, 50, 56); stroke-miterlimit: 10; transform-origin: 425.485px 418.215px;" id="ely8xz26vp7v" class="animable"></polygon><polygon points="453.97 393.47 425 418.62 394.2 395.74 453.97 393.47" style="fill: rgb(255, 255, 255); stroke: rgb(38, 50, 56); stroke-miterlimit: 10; transform-origin: 424.085px 406.045px;" id="elbrzv59cltmi" class="animable"></polygon><g id="elqw4ar2u5tuo"><rect x="367.29" y="386.32" width="59.82" height="36.78" style="fill: rgb(255, 255, 255); stroke: rgb(38, 50, 56); stroke-miterlimit: 10; transform-origin: 397.2px 404.71px; transform: rotate(-130.34deg);" class="animable" id="el0n87n1k2h9i"></rect></g><polygon points="402.55 439.41 403.8 398.46 363.82 393.81 402.55 439.41" style="fill: rgb(255, 255, 255); stroke: rgb(38, 50, 56); stroke-miterlimit: 10; transform-origin: 383.81px 416.61px;" id="el442am8r5jnh" class="animable"></polygon><polygon points="430.58 415.6 392.9 408.36 391.85 370.01 430.58 415.6" style="fill: rgb(255, 255, 255); stroke: rgb(38, 50, 56); stroke-miterlimit: 10; transform-origin: 411.215px 392.805px;" id="elfy6gnqyqx8c" class="animable"></polygon><g id="elgkz7u8woyko"><rect x="355.91" y="398.17" width="59.82" height="36.78" style="fill: rgb(255, 255, 255); stroke: rgb(38, 50, 56); stroke-miterlimit: 10; transform-origin: 385.82px 416.56px; transform: rotate(163.65deg);" class="animable" id="elikzs2db1g28"></rect></g><polygon points="419.7 425.78 382.8 407.99 362.29 442.62 419.7 425.78" style="fill: rgb(255, 255, 255); stroke: rgb(38, 50, 56); stroke-miterlimit: 10; transform-origin: 390.995px 425.305px;" id="elenpc8t5bupn" class="animable"></polygon><polygon points="409.34 390.49 387.41 421.96 351.94 407.33 409.34 390.49" style="fill: rgb(255, 255, 255); stroke: rgb(38, 50, 56); stroke-miterlimit: 10; transform-origin: 380.64px 406.225px;" id="elrso5of8gq9" class="animable"></polygon><polygon points="470.89 463.42 475.17 458.6 430.39 418.93 406 446.45 425.16 463.42 470.89 463.42" style="fill: rgb(255, 255, 255); stroke: rgb(38, 50, 56); stroke-miterlimit: 10; transform-origin: 440.585px 441.175px;" id="el5sacka50zhc" class="animable"></polygon><polygon points="448.25 463.42 446.24 445.41 406 446.45 425.16 463.42 448.25 463.42" style="fill: rgb(255, 255, 255); stroke: rgb(38, 50, 56); stroke-miterlimit: 10; transform-origin: 427.125px 454.415px;" id="el7fljiwnfm43" class="animable"></polygon><polygon points="475.17 458.6 436.85 456.75 430.39 418.93 475.17 458.6" style="fill: rgb(255, 255, 255); stroke: rgb(38, 50, 56); stroke-miterlimit: 10; transform-origin: 452.78px 438.765px;" id="elj1jleetk8bj" class="animable"></polygon><polygon points="423.47 463.42 442.17 457.94 431.82 422.65 374.42 439.49 381.44 463.42 423.47 463.42" style="fill: rgb(255, 255, 255); stroke: rgb(38, 50, 56); stroke-miterlimit: 10; transform-origin: 408.295px 443.035px;" id="el3xdd6emfal6" class="animable"></polygon><polygon points="423.47 463.42 442.17 457.94 405.27 440.15 391.49 463.42 423.47 463.42" style="fill: rgb(255, 255, 255); stroke: rgb(38, 50, 56); stroke-miterlimit: 10; transform-origin: 416.83px 451.785px;" id="elqgt0ywkkm" class="animable"></polygon><polygon points="431.82 422.65 409.88 454.12 374.42 439.49 431.82 422.65" style="fill: rgb(255, 255, 255); stroke: rgb(38, 50, 56); stroke-miterlimit: 10; transform-origin: 403.12px 438.385px;" id="el16emq28y8xa" class="animable"></polygon><g id="elgvx1yy7vx4l"><rect x="317.65" y="419.42" width="59.82" height="36.78" style="fill: rgb(255, 255, 255); stroke: rgb(38, 50, 56); stroke-miterlimit: 10; transform-origin: 347.56px 437.81px; transform: rotate(177.82deg);" class="animable" id="el3jvdflzqiue"></rect></g><polygon points="378.14 455.04 346.72 428.76 318.37 457.32 378.14 455.04" style="fill: rgb(255, 255, 255); stroke: rgb(38, 50, 56); stroke-miterlimit: 10; transform-origin: 348.255px 443.04px;" id="elml09k4pmnds" class="animable"></polygon><polygon points="376.75 418.29 347.77 443.44 316.97 420.57 376.75 418.29" style="fill: rgb(255, 255, 255); stroke: rgb(38, 50, 56); stroke-miterlimit: 10; transform-origin: 346.86px 430.865px;" id="elrpbo1fwoi3t" class="animable"></polygon><polygon points="160.09 463.42 192.02 446.15 174.52 413.8 121.91 442.27 133.35 463.42 160.09 463.42" style="fill: rgb(255, 255, 255); stroke: rgb(38, 50, 56); stroke-miterlimit: 10; transform-origin: 156.965px 438.61px;" id="elum31htrr9ho" class="animable"></polygon><polygon points="160.09 463.42 192.02 446.15 153.08 436 143.37 463.42 160.09 463.42" style="fill: rgb(255, 255, 255); stroke: rgb(38, 50, 56); stroke-miterlimit: 10; transform-origin: 167.695px 449.71px;" id="elnrjawhicpli" class="animable"></polygon><polygon points="121.91 442.27 159.65 449.17 174.52 413.8 121.91 442.27" style="fill: rgb(255, 255, 255); stroke: rgb(38, 50, 56); stroke-miterlimit: 10; transform-origin: 148.215px 431.485px;" id="el75for558ml" class="animable"></polygon><g id="el2w79mjpgekg"><rect x="99.29" y="304.08" width="59.82" height="36.78" style="fill: rgb(255, 255, 255); stroke: rgb(38, 50, 56); stroke-miterlimit: 10; transform-origin: 129.2px 322.47px; transform: rotate(139.59deg);" class="animable" id="eliiamhjo12s"></rect></g><polygon points="163.9 317.08 122.95 315.88 118.34 355.86 163.9 317.08" style="fill: rgb(255, 255, 255); stroke: rgb(38, 50, 56); stroke-miterlimit: 10; transform-origin: 141.12px 335.87px;" id="elyvaw9wy8gsc" class="animable"></polygon><polygon points="140.06 289.08 132.86 326.76 94.51 327.86 140.06 289.08" style="fill: rgb(255, 255, 255); stroke: rgb(38, 50, 56); stroke-miterlimit: 10; transform-origin: 117.285px 308.47px;" id="el2yzhryp1icg" class="animable"></polygon></g><g id="freepik--Table--inject-62" class="animable" style="transform-origin: 248.77px 463.42px;"><line x1="11.98" y1="463.42" x2="485.56" y2="463.42" style="fill: none; stroke: rgb(38, 50, 56); stroke-miterlimit: 10; transform-origin: 248.77px 463.42px;" id="eld9vuvvhky96" class="animable"></line></g><defs>     <filter id="active" height="200%">         <feMorphology in="SourceAlpha" result="DILATED" operator="dilate" radius="2"></feMorphology>                <feFlood flood-color="#32DFEC" flood-opacity="1" result="PINK"></feFlood>        <feComposite in="PINK" in2="DILATED" operator="in" result="OUTLINE"></feComposite>        <feMerge>            <feMergeNode in="OUTLINE"></feMergeNode>            <feMergeNode in="SourceGraphic"></feMergeNode>        </feMerge>    </filter>    <filter id="hover" height="200%">        <feMorphology in="SourceAlpha" result="DILATED" operator="dilate" radius="2"></feMorphology>                <feFlood flood-color="#ff0000" flood-opacity="0.5" result="PINK"></feFlood>        <feComposite in="PINK" in2="DILATED" operator="in" result="OUTLINE"></feComposite>        <feMerge>            <feMergeNode in="OUTLINE"></feMergeNode>            <feMergeNode in="SourceGraphic"></feMergeNode>        </feMerge>            <feColorMatrix type="matrix" values="0   0   0   0   0                0   1   0   0   0                0   0   0   0   0                0   0   0   1   0 "></feColorMatrix>    </filter></defs></svg>